<svg xmlns="http://www.w3.org/2000/svg" viewBox="0 0 218 97"><defs><style>.cls-1{font-size:48.9px;}.cls-1,.cls-4{font-family:Earth'sMightiestBoldItalic, Earths Mightiest Bold Italic;}.cls-2{letter-spacing:-0.04em;}.cls-3{letter-spacing:0em;}.cls-4{font-size:74.31px;}.cls-5{letter-spacing:-0.02em;}.cls-6{letter-spacing:-0.04em;}</style></defs><g id="Layer_2" data-name="Layer 2"><text class="cls-1" transform="translate(65 40.9)">M<tspan class="cls-2" x="26.75" y="0">a</tspan><tspan class="cls-3" x="44.64" y="0">tt</tspan></text><text class="cls-4" transform="translate(29 85.04)">Q<tspan class="cls-5" x="27.79" y="0">u</tspan><tspan class="cls-6" x="53.65" y="0">a</tspan><tspan x="81.37" y="0">yle</tspan></text><polygon points="146.49 9.12 144 21.62 141.23 21.62 137 38.62 186.09 38.62 183 53.62 179.52 53.62 179 56.62 181.96 56.62 179 69.62 174.27 69.62 173 74.62 177.84 74.62 173 87.62 196.23 88.12 218 9.12 146.49 9.12"/></g><g id="Layer_3" data-name="Layer 3"><path d="M84,8H34.72L14,86.5H52.18S39,76,46,52c5.23-17.93,14-23,20-23s11,5,11,5Z" transform="translate(-14 1.62)"/></g></svg>